<?xml version="1.0" encoding="utf-8"?>
<!-- Generator: Adobe Illustrator 16.2.0, SVG Export Plug-In . SVG Version: 6.00 Build 0)  -->
<!DOCTYPE svg PUBLIC "-//W3C//DTD SVG 1.1//EN" "http://www.w3.org/Graphics/SVG/1.1/DTD/svg11.dtd">
<svg version="1.1" id="Layer_1" xmlns="http://www.w3.org/2000/svg" xmlns:xlink="http://www.w3.org/1999/xlink" x="0px" y="0px"
	 width="300px" height="300px" viewBox="0 0 300 300" enable-background="new 0 0 300 300" xml:space="preserve">
<g>
	<rect x="0.099" fill="#0060A9" width="299.901" height="299.854"/>
	<rect x="75.106" y="200.815" fill="#FFFFFF" width="150.058" height="24.361"/>
	<polygon fill="#FFFFFF" points="149.475,75.25 174.85,75.25 187.262,157.692 199.931,75.25 225.023,75.25 225.023,187.873 
		208.308,187.873 208.308,103.062 194.182,187.873 179.764,187.873 166.191,103.062 166.191,187.729 149.475,187.729 	"/>
	<path fill="#FFFFFF" d="M114.74,111.013h17.166v-7.951c0-7.779,0-30.136-28.701-30.136c-27.99,0-27.99,25.527-27.99,30.136
		c0,2.476,0,54.064,0,58.54c0,17.092,6.229,28.31,22.439,28.398c9.568,0.019,16.242-5.965,17.659-8.232v5.961l16.592,0.145v-61.015
		h-26.963v13.552h9.797c0,0,0,15.78,0,17.812c0,9.064-2.801,15.22-11.232,15.22c-8.445,0-11.127-6.55-11.127-15.22
		c0-5.348,0-51.831,0-55.16c0-4.469,0-14.705,11.127-14.705c11.232,0,11.232,10.389,11.232,14.705
		C114.74,106.818,114.74,111.013,114.74,111.013z"/>
</g>
</svg>
